<svg id="CTAS_Logo" xmlns="http://www.w3.org/2000/svg" width="242.191" height="117.266" viewBox="0 0 242.191 117.266">
  <g id="Group_156" data-name="Group 156" transform="translate(117.644 54.104)">
    <g id="Group_106" data-name="Group 106" transform="translate(0 7.85)">
      <path id="Path_75" data-name="Path 75" d="M7.251,14.394A16.059,16.059,0,0,1-4.585,9.659,15.9,15.9,0,0,1-9.32-2.053,15.909,15.909,0,0,1-4.585-13.766,16.066,16.066,0,0,1,7.251-18.5a16.621,16.621,0,0,1,8.38,2.15,14.981,14.981,0,0,1,5.825,5.889L12.608-5.354A5.731,5.731,0,0,0,7.189-8.407,5.868,5.868,0,0,0,2.827-6.633a6.262,6.262,0,0,0-1.744,4.58A6.257,6.257,0,0,0,2.827,2.526,5.863,5.863,0,0,0,7.189,4.3a5.63,5.63,0,0,0,5.419-3.115L21.455,6.3a15.2,15.2,0,0,1-5.825,5.919,16.447,16.447,0,0,1-8.38,2.18" transform="translate(9.32 18.501)" fill="#103643"/>
    </g>
    <g id="Group_107" data-name="Group 107" transform="translate(32.521)">
      <path id="Path_76" data-name="Path 76" d="M9.4,3.817v9.905H2.925v9.034a2.374,2.374,0,0,0,1.4,2.523,14.327,14.327,0,0,0,5.078.341v9.345Q.185,36.089-3.678,33.284q-3.739-2.928-3.737-10.279V13.722h-4.673V3.817h4.673V-1.791L2.925-4.906V3.817Z" transform="translate(12.088 4.906)" fill="#103643"/>
    </g>
    <g id="Group_108" data-name="Group 108" transform="translate(57.378 7.85)">
      <path id="Path_77" data-name="Path 77" d="M5.343,9.351a6.169,6.169,0,0,0,4.737,1.869,6.164,6.164,0,0,0,4.733-1.869A6.923,6.923,0,0,0,16.62,4.429,6.923,6.923,0,0,0,14.812-.492a6.158,6.158,0,0,0-4.733-1.869A6.163,6.163,0,0,0,5.343-.492a6.912,6.912,0,0,0-1.8,4.922,6.912,6.912,0,0,0,1.8,4.922M16.62-8.28v-2.866H26.96V20H16.62V17.139a10.991,10.991,0,0,1-8.847,3.737A13.445,13.445,0,0,1-2.694,16.2,17.156,17.156,0,0,1-6.867,4.429,16.789,16.789,0,0,1-2.694-7.284,13.376,13.376,0,0,1,7.773-12.019,10.987,10.987,0,0,1,16.62-8.28" transform="translate(6.867 12.019)" fill="#103643"/>
    </g>
    <g id="Group_109" data-name="Group 109" transform="translate(95.568 7.851)">
      <path id="Path_78" data-name="Path 78" d="M5.234,4.361q0,.811,1.341,1.341a30.187,30.187,0,0,0,4.081,1.152,22.592,22.592,0,0,1,3.456.965A14.738,14.738,0,0,1,17.289,9.5a7.357,7.357,0,0,1,2.491,2.991,9.955,9.955,0,0,1,.905,4.329q0,5.419-3.988,7.912a17.367,17.367,0,0,1-9.47,2.553q-10.465,0-13.954-7.413l9.032-4.548a4.7,4.7,0,0,0,4.859,3.426q2.8,0,2.8-1.682c0-.541-.427-.985-1.277-1.339a30.857,30.857,0,0,0-4.081-1.216,17.027,17.027,0,0,1-3.4-1.028A19.414,19.414,0,0,1-1.9,11.776,7.1,7.1,0,0,1-4.36,8.94a9.133,9.133,0,0,1-.871-4.081A9.07,9.07,0,0,1-1.557-2.864,14.375,14.375,0,0,1,7.291-5.606q9.156,0,12.832,7.228L11.4,5.546A4.23,4.23,0,0,0,7.54,2.866q-2.307,0-2.306,1.5" transform="translate(6.727 5.606)" fill="#103643"/>
    </g>
  </g>
  <g id="Group_155" data-name="Group 155" transform="translate(46.965 109.52)">
    <g id="Group_110" data-name="Group 110">
      <path id="Path_79" data-name="Path 79" d="M1.694,3.389A3.755,3.755,0,0,1-1.083,2.272a3.76,3.76,0,0,1-1.1-2.756,3.73,3.73,0,0,1,1.1-2.754A3.75,3.75,0,0,1,1.694-4.356a3.8,3.8,0,0,1,1.867.473A3.47,3.47,0,0,1,4.9-2.6l-1.266.734a1.974,1.974,0,0,0-.788-.782A2.348,2.348,0,0,0,1.694-2.93,2.347,2.347,0,0,0-.06-2.249,2.447,2.447,0,0,0-.72-.484,2.433,2.433,0,0,0-.06,1.271a2.347,2.347,0,0,0,1.755.681,2.379,2.379,0,0,0,1.154-.281A1.913,1.913,0,0,0,3.631.9L4.9,1.634A3.47,3.47,0,0,1,3.561,2.916a3.8,3.8,0,0,1-1.867.473" transform="translate(2.178 4.356)" fill="#103643"/>
    </g>
    <g id="Group_111" data-name="Group 111" transform="translate(7.67 0)">
      <path id="Path_80" data-name="Path 80" d="M.941,2.462a2.322,2.322,0,0,0,1.712.681,2.322,2.322,0,0,0,1.712-.681A2.371,2.371,0,0,0,5.057.707a2.371,2.371,0,0,0-.692-1.755,2.321,2.321,0,0,0-1.712-.693,2.321,2.321,0,0,0-1.712.693A2.378,2.378,0,0,0,.249.707,2.378,2.378,0,0,0,.941,2.462m4.457,1A3.756,3.756,0,0,1,2.653,4.58,3.75,3.75,0,0,1-.091,3.462,3.785,3.785,0,0,1-1.209.707,3.734,3.734,0,0,1-.091-2.038,3.737,3.737,0,0,1,2.653-3.165,3.744,3.744,0,0,1,5.4-2.038,3.714,3.714,0,0,1,6.525.707,3.742,3.742,0,0,1,5.4,3.462" transform="translate(1.209 3.165)" fill="#103643"/>
    </g>
    <g id="Group_112" data-name="Group 112" transform="translate(16.544 0.149)">
      <path id="Path_81" data-name="Path 81" d="M.642,0V6.043H3.483v1.4H-.825V0Z" transform="translate(0.825)" fill="#103643"/>
    </g>
    <g id="Group_113" data-name="Group 113" transform="translate(21.789 0.149)">
      <path id="Path_82" data-name="Path 82" d="M.642,0V6.043H3.483v1.4H-.825V0Z" transform="translate(0.825)" fill="#103643"/>
    </g>
    <g id="Group_114" data-name="Group 114" transform="translate(27.032 0.149)">
      <path id="Path_83" data-name="Path 83" d="M.643,1.913v1.67H3.781v1.4H-.826V-2.459H3.727v1.4H.643V.53h2.82V1.913Z" transform="translate(0.826 2.459)" fill="#103643"/>
    </g>
    <g id="Group_115" data-name="Group 115" transform="translate(32.383 0.001)">
      <path id="Path_84" data-name="Path 84" d="M1.713,1.573H5.447v.574A3.438,3.438,0,0,1,4.426,4.733a3.635,3.635,0,0,1-2.639.99A3.923,3.923,0,0,1-1.075,4.6,3.734,3.734,0,0,1-2.2,1.859,3.771,3.771,0,0,1-1.085-.895,3.787,3.787,0,0,1,1.7-2.022,3.892,3.892,0,0,1,3.6-1.554,3.526,3.526,0,0,1,4.947-.288L3.692.435A1.965,1.965,0,0,0,2.883-.31,2.5,2.5,0,0,0,1.692-.6,2.337,2.337,0,0,0-.063.1,2.369,2.369,0,0,0-.744,1.859,2.365,2.365,0,0,0-.052,3.605,2.523,2.523,0,0,0,1.8,4.285a2.494,2.494,0,0,0,1.4-.372,1.838,1.838,0,0,0,.765-1.042H1.713Z" transform="translate(2.202 2.022)" fill="#103643"/>
    </g>
    <g id="Group_116" data-name="Group 116" transform="translate(41.183 0.149)">
      <path id="Path_85" data-name="Path 85" d="M.642,1.913v1.67H3.78v1.4H-.825V-2.459H3.727v1.4H.642V.53h2.82V1.913Z" transform="translate(0.825 2.459)" fill="#103643"/>
    </g>
    <g id="Group_117" data-name="Group 117" transform="translate(49.139 0.149)">
      <path id="Path_86" data-name="Path 86" d="M0,0H5.48V1.4H3.469V7.446H2V1.4H0Z" fill="#103643"/>
    </g>
    <g id="Group_118" data-name="Group 118" transform="translate(55.479 0.149)">
      <path id="Path_87" data-name="Path 87" d="M1.243,3.324A2.972,2.972,0,0,1-.8,2.621,2.378,2.378,0,0,1-1.6.738v-5.01H-.14V.621a1.238,1.238,0,0,0,.347.932,1.431,1.431,0,0,0,1.037.334A1.431,1.431,0,0,0,2.28,1.553,1.238,1.238,0,0,0,2.627.621V-4.272H4.1V.738a2.382,2.382,0,0,1-.8,1.883,3,3,0,0,1-2.054.7" transform="translate(1.598 4.272)" fill="#103643"/>
    </g>
    <path id="Path_88" data-name="Path 88" d="M61.621-4.272h1.467V3.174H61.621Z" transform="translate(0.977 4.422)" fill="#103643"/>
    <g id="Group_119" data-name="Group 119" transform="translate(65.001 0.149)">
      <path id="Path_89" data-name="Path 89" d="M0,0H5.48V1.4H3.469V7.446H2V1.4H0Z" fill="#103643"/>
    </g>
    <path id="Path_90" data-name="Path 90" d="M66.575-4.272h1.467V3.174H66.575Z" transform="translate(4.831 4.422)" fill="#103643"/>
    <g id="Group_120" data-name="Group 120" transform="translate(74.022 0)">
      <path id="Path_91" data-name="Path 91" d="M.941,2.462a2.322,2.322,0,0,0,1.712.681,2.322,2.322,0,0,0,1.712-.681A2.371,2.371,0,0,0,5.057.707a2.371,2.371,0,0,0-.692-1.755,2.321,2.321,0,0,0-1.712-.693,2.321,2.321,0,0,0-1.712.693A2.371,2.371,0,0,0,.249.707,2.371,2.371,0,0,0,.941,2.462m4.457,1A3.756,3.756,0,0,1,2.653,4.58,3.75,3.75,0,0,1-.091,3.462,3.785,3.785,0,0,1-1.209.707,3.734,3.734,0,0,1-.091-2.038,3.737,3.737,0,0,1,2.653-3.165,3.744,3.744,0,0,1,5.4-2.038,3.714,3.714,0,0,1,6.525.707,3.742,3.742,0,0,1,5.4,3.462" transform="translate(1.209 3.165)" fill="#103643"/>
    </g>
    <g id="Group_121" data-name="Group 121" transform="translate(82.895 0.149)">
      <path id="Path_92" data-name="Path 92" d="M1.885,1.988V-2.555H3.354V4.893H2.237L-.956.34V4.893H-2.423V-2.555h1.117Z" transform="translate(2.423 2.555)" fill="#103643"/>
    </g>
    <g id="Group_122" data-name="Group 122" transform="translate(92.268 0.149)">
      <path id="Path_93" data-name="Path 93" d="M1.54.74.52,3.782H2.563ZM5.061,6.5H3.466L3.02,5.155H.05L-.4,6.5H-1.98L.627-.951H2.445Z" transform="translate(1.98 0.951)" fill="#103643"/>
    </g>
    <g id="Group_123" data-name="Group 123" transform="translate(100.139 0.148)">
      <path id="Path_94" data-name="Path 94" d="M.643,2.644h1.49a2.072,2.072,0,0,0,1.574-.638A2.391,2.391,0,0,0,4.314.326a2.33,2.33,0,0,0-.608-1.671,2.055,2.055,0,0,0-1.574-.649H.643ZM-.826-3.4H2.133A3.378,3.378,0,0,1,4.686-2.323,3.659,3.659,0,0,1,5.717.326,3.662,3.662,0,0,1,4.686,2.975,3.383,3.383,0,0,1,2.133,4.049H-.826Z" transform="translate(0.826 3.399)" fill="#103643"/>
    </g>
    <g id="Group_124" data-name="Group 124" transform="translate(106.841 0.149)">
      <path id="Path_95" data-name="Path 95" d="M1.891,3.258H.072l-2.5-7.446h1.6L.986,1.535,2.8-4.188H4.4Z" transform="translate(2.43 4.188)" fill="#103643"/>
    </g>
    <path id="Path_96" data-name="Path 96" d="M90.807-4.272h1.469V3.174H90.807Z" transform="translate(23.683 4.422)" fill="#103643"/>
    <g id="Group_125" data-name="Group 125" transform="translate(116.949)">
      <path id="Path_97" data-name="Path 97" d="M1.28,3.389A3.339,3.339,0,0,1-.571,2.9,2.662,2.662,0,0,1-1.645,1.549L-.39.814A1.67,1.67,0,0,0,1.322,1.952a1.531,1.531,0,0,0,.893-.212.671.671,0,0,0,.3-.574A.671.671,0,0,0,2.163.56,5.138,5.138,0,0,0,.908.08,5.525,5.525,0,0,1-.635-.612a1.785,1.785,0,0,1-.7-1.533A1.964,1.964,0,0,1-.624-3.75a2.577,2.577,0,0,1,1.734-.606A2.918,2.918,0,0,1,2.7-3.92,2.928,2.928,0,0,1,3.769-2.686l-1.234.713A1.485,1.485,0,0,0,1.109-2.93,1.126,1.126,0,0,0,.4-2.722a.645.645,0,0,0-.265.537.7.7,0,0,0,.286.574,4.379,4.379,0,0,0,1.127.468l.512.171c.092.027.251.089.478.18A2.094,2.094,0,0,1,3-.569a1.867,1.867,0,0,1,.7.66,1.955,1.955,0,0,1,.277,1.054,1.992,1.992,0,0,1-.756,1.638,3.019,3.019,0,0,1-1.947.606" transform="translate(1.645 4.356)" fill="#103643"/>
    </g>
    <g id="Group_126" data-name="Group 126" transform="translate(123.246 0)">
      <path id="Path_98" data-name="Path 98" d="M.941,2.462a2.325,2.325,0,0,0,1.712.681,2.329,2.329,0,0,0,1.714-.681A2.377,2.377,0,0,0,5.057.707a2.377,2.377,0,0,0-.69-1.755,2.327,2.327,0,0,0-1.714-.693,2.323,2.323,0,0,0-1.712.693A2.378,2.378,0,0,0,.249.707,2.378,2.378,0,0,0,.941,2.462m4.457,1A3.754,3.754,0,0,1,2.653,4.58,3.752,3.752,0,0,1-.091,3.462,3.785,3.785,0,0,1-1.209.707,3.734,3.734,0,0,1-.091-2.038,3.74,3.74,0,0,1,2.653-3.165,3.741,3.741,0,0,1,5.4-2.038,3.714,3.714,0,0,1,6.525.707,3.742,3.742,0,0,1,5.4,3.462" transform="translate(1.209 3.165)" fill="#103643"/>
    </g>
    <g id="Group_127" data-name="Group 127" transform="translate(132.119 0.148)">
      <path id="Path_99" data-name="Path 99" d="M1.3.6H-.206V2.8H1.3a.931.931,0,0,0,.713-.325,1.113,1.113,0,0,0,.3-.781,1.1,1.1,0,0,0-.3-.779A.942.942,0,0,0,1.3.6M4,6.676H2.411L.91,4.091H-.206V6.676H-1.675V-.772H1.3a2.39,2.39,0,0,1,1.755.724A2.375,2.375,0,0,1,3.782,1.7a2.253,2.253,0,0,1-.393,1.28,2.468,2.468,0,0,1-1.042.889Z" transform="translate(1.675 0.772)" fill="#103643"/>
    </g>
    <g id="Group_128" data-name="Group 128" transform="translate(137.884 0.149)">
      <path id="Path_100" data-name="Path 100" d="M2.142,0H3.8L1.248,4.543v2.9H-.209v-2.9L-2.753,0h1.661L.524,3.106Z" transform="translate(2.753)" fill="#103643"/>
    </g>
    <g id="Group_129" data-name="Group 129" transform="translate(147.641)">
      <path id="Path_101" data-name="Path 101" d="M1.28,3.389A3.339,3.339,0,0,1-.571,2.9,2.662,2.662,0,0,1-1.645,1.549L-.39.814A1.67,1.67,0,0,0,1.322,1.952a1.531,1.531,0,0,0,.893-.212.671.671,0,0,0,.3-.574A.671.671,0,0,0,2.163.56,5.138,5.138,0,0,0,.908.08,5.525,5.525,0,0,1-.635-.612a1.785,1.785,0,0,1-.7-1.533A1.964,1.964,0,0,1-.624-3.75a2.577,2.577,0,0,1,1.734-.606A2.918,2.918,0,0,1,2.7-3.92,2.928,2.928,0,0,1,3.769-2.686l-1.234.713A1.485,1.485,0,0,0,1.109-2.93,1.126,1.126,0,0,0,.4-2.722a.645.645,0,0,0-.265.537.7.7,0,0,0,.286.574,4.379,4.379,0,0,0,1.127.468l.512.171c.092.027.251.089.478.18A2.094,2.094,0,0,1,3-.569a1.867,1.867,0,0,1,.7.66,1.955,1.955,0,0,1,.277,1.054,1.992,1.992,0,0,1-.756,1.638,3.019,3.019,0,0,1-1.947.606" transform="translate(1.645 4.356)" fill="#103643"/>
    </g>
    <g id="Group_130" data-name="Group 130" transform="translate(154.278 0.149)">
      <path id="Path_102" data-name="Path 102" d="M.643,1.913v1.67H3.781v1.4H-.826V-2.459H3.727v1.4H.643V.53H3.461V1.913Z" transform="translate(0.826 2.459)" fill="#103643"/>
    </g>
    <g id="Group_131" data-name="Group 131" transform="translate(160.023 0.148)">
      <path id="Path_103" data-name="Path 103" d="M1.3.6H-.206V2.8H1.3a.931.931,0,0,0,.713-.325,1.113,1.113,0,0,0,.3-.781,1.1,1.1,0,0,0-.3-.779A.942.942,0,0,0,1.3.6M4,6.676H2.411L.91,4.091H-.206V6.676H-1.675V-.772H1.3a2.39,2.39,0,0,1,1.755.724A2.375,2.375,0,0,1,3.782,1.7a2.253,2.253,0,0,1-.393,1.28,2.468,2.468,0,0,1-1.042.889Z" transform="translate(1.675 0.772)" fill="#103643"/>
    </g>
    <g id="Group_132" data-name="Group 132" transform="translate(165.885 0.149)">
      <path id="Path_104" data-name="Path 104" d="M1.891,3.258H.072l-2.5-7.446h1.6L.986,1.535,2.8-4.188H4.4Z" transform="translate(2.43 4.188)" fill="#103643"/>
    </g>
    <path id="Path_105" data-name="Path 105" d="M124.015-4.272h1.469V3.174h-1.469Z" transform="translate(49.519 4.422)" fill="#103643"/>
    <g id="Group_133" data-name="Group 133" transform="translate(176.151)">
      <path id="Path_106" data-name="Path 106" d="M1.694,3.389A3.748,3.748,0,0,1-1.081,2.272a3.761,3.761,0,0,1-1.1-2.756,3.732,3.732,0,0,1,1.1-2.754A3.743,3.743,0,0,1,1.694-4.356a3.8,3.8,0,0,1,1.867.473A3.47,3.47,0,0,1,4.9-2.6l-1.266.734a1.974,1.974,0,0,0-.788-.782A2.348,2.348,0,0,0,1.694-2.93,2.347,2.347,0,0,0-.06-2.249,2.447,2.447,0,0,0-.72-.484,2.433,2.433,0,0,0-.06,1.271a2.347,2.347,0,0,0,1.755.681,2.379,2.379,0,0,0,1.154-.281A1.913,1.913,0,0,0,3.631.9L4.9,1.634A3.47,3.47,0,0,1,3.561,2.916a3.8,3.8,0,0,1-1.867.473" transform="translate(2.178 4.356)" fill="#103643"/>
    </g>
    <g id="Group_134" data-name="Group 134" transform="translate(184.236 0.149)">
      <path id="Path_107" data-name="Path 107" d="M.643,1.913v1.67H3.781v1.4H-.826V-2.459H3.727v1.4H.643V.53h2.82V1.913Z" transform="translate(0.826 2.459)" fill="#103643"/>
    </g>
    <g id="Group_135" data-name="Group 135" transform="translate(189.599)">
      <path id="Path_108" data-name="Path 108" d="M1.28,3.389A3.339,3.339,0,0,1-.571,2.9,2.671,2.671,0,0,1-1.645,1.549L-.39.814A1.67,1.67,0,0,0,1.322,1.952a1.531,1.531,0,0,0,.893-.212.667.667,0,0,0,.3-.574A.667.667,0,0,0,2.163.56,5.138,5.138,0,0,0,.908.08,5.525,5.525,0,0,1-.635-.612a1.79,1.79,0,0,1-.7-1.533A1.969,1.969,0,0,1-.624-3.75a2.581,2.581,0,0,1,1.734-.606A2.918,2.918,0,0,1,2.7-3.92,2.928,2.928,0,0,1,3.769-2.686l-1.234.713A1.484,1.484,0,0,0,1.109-2.93,1.126,1.126,0,0,0,.4-2.722a.65.65,0,0,0-.265.537.7.7,0,0,0,.288.574,4.323,4.323,0,0,0,1.127.468l.51.171c.092.027.251.089.478.18A2.018,2.018,0,0,1,3-.569a1.853,1.853,0,0,1,.7.66,1.955,1.955,0,0,1,.277,1.054,1.992,1.992,0,0,1-.756,1.638,3.015,3.015,0,0,1-1.947.606" transform="translate(1.645 4.356)" fill="#103643"/>
    </g>
  </g>
  <g id="Group_137" data-name="Group 137" transform="translate(43.052 19.569)">
    <path id="Path_110" data-name="Path 110" d="M3.425,1.712A3.912,3.912,0,0,1-.489,5.626,3.912,3.912,0,0,1-4.4,1.712,3.912,3.912,0,0,1-.489-2.2,3.912,3.912,0,0,1,3.425,1.712" transform="translate(4.402 2.201)" fill="#4256a2"/>
  </g>
  <g id="Group_138" data-name="Group 138" transform="translate(22.714 31.309)">
    <path id="Path_111" data-name="Path 111" d="M2.569.23A3.914,3.914,0,1,1-2.777,1.663,3.914,3.914,0,0,1,2.569.23" transform="translate(3.302 0.295)" fill="#4256a2"/>
  </g>
  <g id="Group_139" data-name="Group 139" transform="translate(22.714 54.792)">
    <path id="Path_112" data-name="Path 112" d="M.857.23A3.914,3.914,0,1,1-.576,5.576,3.914,3.914,0,0,1,.857.23" transform="translate(1.101 0.295)" fill="#4256a2"/>
  </g>
  <g id="Group_140" data-name="Group 140" transform="translate(43.051 66.534)">
    <path id="Path_113" data-name="Path 113" d="M0,1.712A3.913,3.913,0,1,1,3.913,5.626,3.914,3.914,0,0,1,0,1.712" transform="translate(0 2.201)" fill="#4256a2"/>
  </g>
  <g id="Group_141" data-name="Group 141" transform="translate(63.387 54.791)">
    <path id="Path_114" data-name="Path 114" d="M.857,3.2A3.914,3.914,0,0,1-.576-2.15,3.914,3.914,0,0,1,4.77-3.583,3.914,3.914,0,0,1,6.2,1.763,3.914,3.914,0,0,1,.857,3.2" transform="translate(1.101 4.108)" fill="#4256a2"/>
  </g>
  <g id="Group_142" data-name="Group 142" transform="translate(63.387 31.309)">
    <path id="Path_115" data-name="Path 115" d="M2.569,3.2A3.914,3.914,0,0,1-2.777,1.763,3.914,3.914,0,0,1-1.344-3.583,3.914,3.914,0,0,1,4-2.15,3.914,3.914,0,0,1,2.569,3.2" transform="translate(3.302 4.108)" fill="#4256a2"/>
  </g>
  <g id="Group_143" data-name="Group 143" transform="translate(43.052)">
    <path id="Path_116" data-name="Path 116" d="M3.425,1.712A3.912,3.912,0,0,1-.489,5.626,3.912,3.912,0,0,1-4.4,1.712,3.912,3.912,0,0,1-.489-2.2,3.912,3.912,0,0,1,3.425,1.712" transform="translate(4.402 2.201)" fill="#4256a2"/>
  </g>
  <g id="Group_144" data-name="Group 144" transform="translate(21.524 5.766)">
    <path id="Path_117" data-name="Path 117" d="M3.2.857A3.914,3.914,0,0,1,1.763,6.2,3.914,3.914,0,0,1-3.583,4.77,3.914,3.914,0,0,1-2.15-.576,3.914,3.914,0,0,1,3.2.857" transform="translate(4.108 1.101)" fill="#4256a2"/>
  </g>
  <g id="Group_145" data-name="Group 145" transform="translate(5.767 21.525)">
    <path id="Path_118" data-name="Path 118" d="M2.569.23A3.914,3.914,0,1,1-2.777,1.663,3.914,3.914,0,0,1,2.569.23" transform="translate(3.302 0.295)" fill="#4256a2"/>
  </g>
  <g id="Group_146" data-name="Group 146" transform="translate(0 43.051)">
    <path id="Path_119" data-name="Path 119" d="M1.712,0A3.913,3.913,0,1,1-2.2,3.913,3.914,3.914,0,0,1,1.712,0" transform="translate(2.201 0)" fill="#4256a2"/>
  </g>
  <g id="Group_147" data-name="Group 147" transform="translate(5.766 64.576)">
    <path id="Path_120" data-name="Path 120" d="M.857.23A3.914,3.914,0,1,1-.576,5.576,3.914,3.914,0,0,1,.857.23" transform="translate(1.101 0.295)" fill="#4256a2"/>
  </g>
  <g id="Group_148" data-name="Group 148" transform="translate(21.525 80.334)">
    <path id="Path_121" data-name="Path 121" d="M.23.857A3.914,3.914,0,1,1,1.663,6.2,3.914,3.914,0,0,1,.23.857" transform="translate(0.295 1.101)" fill="#4256a2"/>
  </g>
  <g id="Group_149" data-name="Group 149" transform="translate(43.051 86.103)">
    <path id="Path_122" data-name="Path 122" d="M0,1.712A3.913,3.913,0,1,1,3.913,5.626,3.914,3.914,0,0,1,0,1.712" transform="translate(0 2.201)" fill="#4256a2"/>
  </g>
  <g id="Group_150" data-name="Group 150" transform="translate(64.576 80.334)">
    <path id="Path_123" data-name="Path 123" d="M.23,2.569A3.914,3.914,0,1,1,5.576,4,3.914,3.914,0,0,1,.23,2.569" transform="translate(0.295 3.302)" fill="#4256a2"/>
  </g>
  <g id="Group_151" data-name="Group 151" transform="translate(80.334 64.576)">
    <path id="Path_124" data-name="Path 124" d="M.857,3.2A3.914,3.914,0,0,1-.576-2.15,3.914,3.914,0,0,1,4.77-3.583,3.914,3.914,0,0,1,6.2,1.763,3.914,3.914,0,0,1,.857,3.2" transform="translate(1.101 4.108)" fill="#4256a2"/>
  </g>
  <g id="Group_152" data-name="Group 152" transform="translate(86.103 43.052)">
    <path id="Path_125" data-name="Path 125" d="M1.712,3.425A3.912,3.912,0,0,1-2.2-.489,3.912,3.912,0,0,1,1.712-4.4,3.912,3.912,0,0,1,5.626-.489,3.912,3.912,0,0,1,1.712,3.425" transform="translate(2.201 4.402)" fill="#4256a2"/>
  </g>
  <g id="Group_153" data-name="Group 153" transform="translate(80.334 21.524)">
    <path id="Path_126" data-name="Path 126" d="M2.569,3.2A3.914,3.914,0,0,1-2.777,1.763,3.914,3.914,0,0,1-1.344-3.583,3.914,3.914,0,0,1,4-2.15,3.914,3.914,0,0,1,2.569,3.2" transform="translate(3.302 4.108)" fill="#4256a2"/>
  </g>
  <g id="Group_154" data-name="Group 154" transform="translate(64.576 5.767)">
    <path id="Path_127" data-name="Path 127" d="M3.2,2.569A3.914,3.914,0,0,1-2.151,4,3.915,3.915,0,0,1-3.584-1.344,3.914,3.914,0,0,1,1.763-2.777,3.914,3.914,0,0,1,3.2,2.569" transform="translate(4.108 3.302)" fill="#4256a2"/>
  </g>
  <path id="Path_128" data-name="Path 128" d="M6.85,3.425A7.826,7.826,0,0,1-.976,11.252,7.826,7.826,0,0,1-8.805,3.425,7.828,7.828,0,0,1-.976-4.4,7.827,7.827,0,0,1,6.85,3.425" transform="translate(47.942 43.54)" fill="#50bcbc"/>
</svg>
